<?xml version="1.0" encoding="utf-8"?>
<!-- Generator: Adobe Illustrator 16.0.0, SVG Export Plug-In . SVG Version: 6.00 Build 0)  -->
<!DOCTYPE svg PUBLIC "-//W3C//DTD SVG 1.1//EN" "http://www.w3.org/Graphics/SVG/1.1/DTD/svg11.dtd">
<svg version="1.1" id="图层_1" xmlns="http://www.w3.org/2000/svg" xmlns:xlink="http://www.w3.org/1999/xlink" x="0px" y="0px"
	 width="70px" height="70px" viewBox="0 0 70 70" enable-background="new 0 0 70 70" xml:space="preserve">
<g>
	<path fill="#28998A" d="M133.006,18.394c0-1.944,1.34-3.224,3.154-3.224s3.195,1.28,3.195,3.224c0,1.895-1.381,3.224-3.195,3.224
		S133.006,20.289,133.006,18.394z M133.41,26.737h5.517v26.621h-5.517V26.737z"/>
	<path fill="#28998A" d="M168.287,20.066c-1.052,1.108-2.404,1.925-3.93,2.322c1.747,3.844,2.729,8.107,2.729,12.61
		c-0.002,8.432-3.411,16.043-8.935,21.57c-5.527,5.523-13.142,8.933-21.57,8.936c-8.432-0.003-16.043-3.412-21.569-8.936
		c-5.524-5.527-8.935-13.139-8.935-21.57c0.001-8.43,3.411-16.043,8.935-21.569c5.526-5.525,13.138-8.935,21.569-8.935
		c6.855,0,13.172,2.256,18.263,6.069c0.704-1.379,1.781-2.531,3.101-3.332c-5.91-4.558-13.318-7.274-21.363-7.274
		c-19.354,0-35.041,15.687-35.041,35.042s15.687,35.042,35.041,35.042c19.356,0,35.041-15.687,35.041-35.042
		C171.623,29.657,170.426,24.597,168.287,20.066z"/>
	<circle fill="#28998A" cx="156.293" cy="8.804" r="2.278"/>
	<circle fill="#28998A" cx="166.434" cy="21.441" r="2.277"/>
	<circle fill="#28998A" cx="136.18" cy="26.763" r="2.781"/>
	<circle fill="#28998A" cx="136.18" cy="53.358" r="2.781"/>
</g>
<g>
	<path fill="#28998A" d="M-148.992,91.273c0,6.033,0,12.063,0,18.096c0,0.549,0.637,0.945,1.119,0.641
		c1.857-1.171,3.715-2.346,5.574-3.519c-0.496,0.313-0.799-0.144,0.014,0.431c0.52,0.365,1.037,0.73,1.557,1.098
		c0.939,0.664,1.879,1.328,2.82,1.99c0.475,0.336,1.121-0.113,1.121-0.641c0-6.033,0-12.063,0-18.096c0-0.959-1.49-0.959-1.49,0
		c0,6.033,0,12.063,0,18.096c0.373-0.215,0.748-0.43,1.121-0.643c-1.688-1.19-3.375-2.381-5.063-3.572
		c-0.207-0.146-0.541-0.133-0.75,0c-1.885,1.191-3.77,2.381-5.656,3.572c0.375,0.213,0.746,0.428,1.121,0.643
		c0-6.033,0-12.063,0-18.096C-147.504,90.314-148.992,90.314-148.992,91.273z"/>
	<path fill="#28998A" d="M-148.992,91.273h-0.447c0,6.033,0,12.063,0,18.096c0.014,0.689,0.568,1.186,1.205,1.195
		c0.199,0,0.41-0.058,0.6-0.174c1.857-1.175,3.717-2.349,5.572-3.521l-0.477-0.755l-0.158,0.053h-0.016l-0.074-0.005l-0.113,0.015
		l-0.16,0.078c-0.074,0.048-0.182,0.197-0.174,0.354c0.016,0.238,0.109,0.285,0.135,0.32l0.09,0.069l0.063,0.03
		c0.049,0.027,0.172,0.094,0.406,0.258c0.518,0.365,1.035,0.73,1.553,1.098c0.943,0.663,1.883,1.327,2.822,1.991
		c0.188,0.134,0.408,0.198,0.615,0.198c0.332-0.002,0.625-0.147,0.84-0.356c0.213-0.212,0.367-0.507,0.369-0.849
		c0-6.033,0-12.063,0-18.096c0.004-0.355-0.152-0.682-0.387-0.879c-0.234-0.199-0.523-0.287-0.803-0.287
		c-0.283,0-0.57,0.086-0.805,0.287c-0.234,0.197-0.393,0.522-0.387,0.879c0,6.033,0,12.063,0,18.096v0.77l0.668-0.383
		c0.373-0.214,0.746-0.429,1.121-0.643l0.605-0.348l-0.57-0.404c-1.688-1.19-3.375-2.381-5.061-3.572
		c-0.199-0.139-0.418-0.186-0.623-0.188c-0.217,0.002-0.43,0.053-0.625,0.174c-1.885,1.19-3.77,2.382-5.656,3.572l-0.627,0.396
		l0.645,0.367c0.373,0.214,0.746,0.429,1.117,0.643l0.672,0.382v-0.769c0-6.033,0-12.063,0-18.096
		c0.004-0.355-0.154-0.682-0.389-0.879c-0.236-0.199-0.521-0.287-0.803-0.287c-0.281,0-0.57,0.086-0.805,0.287
		c-0.234,0.197-0.391,0.522-0.387,0.879h0.449h0.447c0.004-0.125,0.031-0.158,0.076-0.201l0.221-0.07l0.219,0.07
		c0.043,0.044,0.074,0.078,0.078,0.203c0,6.031,0,12.063,0,18.095h0.447l0.221-0.388c-0.371-0.215-0.746-0.43-1.119-0.644
		l-0.223,0.39l0.24,0.375c1.885-1.189,3.77-2.381,5.656-3.57l0.146-0.035l0.107,0.021c1.688,1.19,3.373,2.381,5.061,3.571
		l0.258-0.364l-0.221-0.389c-0.377,0.214-0.748,0.43-1.123,0.643l0.223,0.389h0.447c0-6.033,0-12.063,0-18.096
		c0.004-0.125,0.033-0.158,0.076-0.201l0.224-0.07l0.221,0.07c0.043,0.044,0.07,0.078,0.076,0.203c0,6.031,0,12.063,0,18.095
		l-0.102,0.21l-0.215,0.102l-0.1-0.033c-0.941-0.664-1.881-1.328-2.82-1.992c-0.52-0.366-1.037-0.731-1.557-1.098
		c-0.193-0.137-0.332-0.222-0.426-0.274l-0.105-0.058l-0.012-0.006l-0.002-0.001l-0.166,0.318l0.189-0.304l-0.023-0.015
		l-0.166,0.318l0.189-0.304l-0.232,0.369l0.293-0.324l-0.061-0.045l-0.232,0.369l0.293-0.324l-0.299,0.33l0.367-0.25l-0.068-0.08
		l-0.299,0.328l0.367-0.25l-0.367,0.25h0.445c-0.002-0.133-0.051-0.207-0.078-0.25l-0.367,0.25h0.445h-0.445l0.27,0.354
		c0.074-0.047,0.18-0.196,0.176-0.354h-0.445l0.27,0.354l-0.27-0.353l0.068,0.438c0.035-0.01,0.086-0.006,0.201-0.086l-0.27-0.354
		l0.068,0.438l-0.068-0.433v0.438l0.068-0.006l-0.068-0.433v0.438v-0.35l-0.039,0.353l0.039,0.002V106.7l-0.039,0.353l0.129,0.008
		c0.152,0.002,0.391-0.037,0.635-0.192l-0.477-0.755c-1.857,1.173-3.715,2.347-5.57,3.52l-0.125,0.037l-0.215-0.094l-0.096-0.208
		c0-6.033,0-12.063,0-18.095H-148.992L-148.992,91.273z"/>
	<path fill="#28998A" d="M-167.25,121.275c6.336,0,12.668,0,19.002,0c1.92,0,1.92-2.977,0-2.977c-6.334,0-12.666,0-19.002,0
		C-169.169,118.299-169.169,121.275-167.25,121.275z"/>
	<path fill="#28998A" d="M-142.563,121.275c1.893,0,3.783,0,5.676,0c1.918,0,1.918-2.977,0-2.977c-1.893,0-3.783,0-5.676,0
		C-144.484,118.299-144.484,121.275-142.563,121.275z"/>
	<path fill="#28998A" d="M-136.887,136.57c-6.246,0-12.492,0-18.735,0c-1.921,0-1.921,2.976,0,2.976c6.243,0,12.489,0,18.735,0
		C-134.967,139.546-134.967,136.57-136.887,136.57z"/>
	<path fill="#28998A" d="M-161.352,136.57c-1.966,0-3.932,0-5.896,0c-1.921,0-1.921,2.976,0,2.976c1.965,0,3.931,0,5.896,0
		C-159.434,139.546-159.434,136.57-161.352,136.57z"/>
	<path fill="#28998A" d="M-167.25,130.404c10.121,0,20.242,0,30.363,0c1.918,0,1.918-2.979,0-2.979c-10.121,0-20.242,0-30.363,0
		C-169.169,127.427-169.169,130.404-167.25,130.404z"/>
	<path fill="#28998A" d="M-132.572,90.083h-36.051c0.168,0.517,0.277,1.06,0.277,1.634c0,0.256-0.037,0.501-0.072,0.747h35.846
		c0.654,0.001,1.188,0.534,1.189,1.19v54.773c-0.002,0.656-0.535,1.188-1.189,1.189h-38.925c-0.657-0.002-1.19-0.533-1.19-1.189
		V96.84c-0.214,0.029-0.423,0.067-0.645,0.067c-0.613,0-1.194-0.132-1.737-0.343v51.862c0.001,1.972,1.599,3.57,3.572,3.572h38.925
		c1.971-0.002,3.57-1.603,3.572-3.572V93.654C-129.002,91.682-130.602,90.083-132.572,90.083z"/>
	<circle fill="#28998A" cx="-168.369" cy="91.261" r="1.207"/>
	<circle fill="#28998A" cx="-173.866" cy="96.637" r="1.204"/>
</g>
<g>
	<path fill="#28998A" d="M60.065,22.005c-1.164,0-2.238-0.392-3.159-1.044c0.007,0.361,0.009,0.729,0.009,1.108
		c0.007,6.614-0.915,15.8-4.186,24.102c-1.631,4.154-3.842,8.086-6.78,11.414c-2.762,3.127-6.165,5.721-10.409,7.541
		c-4.244-1.818-7.647-4.414-10.41-7.541c-4.407-4.988-7.175-11.354-8.813-17.756c-1.643-6.394-2.155-12.803-2.153-17.761
		c0-2.688,0.151-4.955,0.339-6.533c0.067-0.554,0.138-1.021,0.204-1.379c11.422-3.857,18.253-7.407,20.834-8.87
		c2.423,1.373,8.571,4.581,18.753,8.158c0.377-1.615,1.236-3.004,2.422-3.914C50.229,7.293,45.36,5.191,42.064,3.608
		c-1.824-0.875-3.173-1.591-4.056-2.083c-0.439-0.247-0.766-0.435-0.974-0.561l-0.229-0.139l-0.052-0.03l-0.007-0.004L35.541,0.02
		l-1.207,0.771l-0.008,0.004c-0.299,0.186-7.417,4.606-22.115,9.467l-0.39,0.129l-0.318,0.258c-0.394,0.333-0.515,0.571-0.629,0.759
		c-0.187,0.352-0.257,0.588-0.339,0.858c-0.131,0.457-0.234,0.968-0.334,1.594c-0.292,1.854-0.525,4.69-0.527,8.208
		c0.005,7.015,0.937,16.665,4.498,25.745c1.784,4.535,4.234,8.934,7.593,12.742c3.354,3.809,7.631,7.012,12.955,9.1l0.822,0.324
		l0.822-0.322c5.326-2.09,9.6-5.293,12.954-9.1c5.039-5.715,8.033-12.74,9.798-19.609c1.763-6.874,2.291-13.614,2.291-18.878
		l-0.002-0.247C60.972,21.934,60.529,22.005,60.065,22.005z"/>
	<ellipse fill="#28998A" cx="59.143" cy="21.524" rx="2.264" ry="2.452"/>
	<ellipse fill="#28998A" cx="55.587" cy="11.532" rx="2.266" ry="2.3"/>
	<path fill="#28998A" d="M21.706,35.133c0.403-0.074,0.804-0.146,1.207-0.217c2.6-0.473,1.368,0.395,0.134-0.88
		c0.896,0.926,1.793,1.85,2.688,2.774c2.32,2.397,4.642,4.796,6.963,7.19c0.822,0.85,2.361,0.896,3.175,0
		c5.996-6.604,11.991-13.21,17.985-19.82c1.94-2.138-1.228-5.324-3.175-3.173c-5.996,6.607-11.991,13.212-17.985,19.82
		c1.058,0,2.117,0,3.175,0c-2.795-2.886-5.59-5.769-8.384-8.658c-2.357-2.434-3.683-1.963-6.976-1.365
		C17.667,31.319,18.876,35.646,21.706,35.133z"/>
</g>
<g>
	<path fill="#2D74AD" d="M-63.74,19.771c9.069,0,18.135,0,27.203,0c2.749,0,2.749-4.261,0-4.261c-9.068,0-18.134,0-27.203,0
		C-66.488,15.51-66.488,19.771-63.74,19.771z"/>
	<path fill="#2D74AD" d="M-28.398,19.771c2.711,0,5.418,0,8.126,0c2.749,0,2.749-4.261,0-4.261c-2.708,0-5.415,0-8.126,0
		C-31.146,15.51-31.146,19.771-28.398,19.771z"/>
	<path fill="#2D74AD" d="M-20.272,37.059c-8.939,0-17.88,0-26.821,0c-2.748,0-2.748,4.264,0,4.264c8.941,0,17.882,0,26.821,0
		C-17.521,41.322-17.521,37.059-20.272,37.059z"/>
	<path fill="#2D74AD" d="M-55.298,37.059c-2.813,0-5.628,0-8.44,0c-2.749,0-2.749,4.264,0,4.264c2.812,0,5.627,0,8.44,0
		C-52.551,41.322-52.551,37.059-55.298,37.059z"/>
	<path fill="#2D74AD" d="M-63.74,30.399c14.49,0,28.978,0,43.469,0c2.75,0,2.75-4.262,0-4.262c-14.488,0-28.978,0-43.469,0
		C-66.488,26.137-66.488,30.399-63.74,30.399z"/>
	<path fill="#2D74AD" d="M-14.732,3.437h-56.251c-3.767,0-6.818,3.053-6.818,6.817v36.648c0,3.77,3.051,6.82,6.818,6.822h5.104
		c0.954,0,1.724-0.764,1.724-1.707c0-0.941-0.771-1.705-1.724-1.705h-5.104c-1.882-0.002-3.406-1.525-3.408-3.41V10.254
		c0.002-1.881,1.526-3.406,3.408-3.408h56.251c1.883,0.002,3.406,1.527,3.408,3.408v36.648c-0.002,1.885-1.525,3.408-3.408,3.41
		h-33.167v0.004c-0.341,0.018-0.689,0.139-1.011,0.393c-5.535,4.35-11.074,8.699-16.611,13.047
		c-1.729,1.357,0.702,3.754,2.412,2.412c5.281-4.148,10.56-8.297,15.843-12.443h32.536c3.768-0.002,6.817-3.053,6.818-6.822V10.254
		C-7.915,6.49-10.964,3.437-14.732,3.437z"/>
</g>
<g>
	<polygon fill="#2D74AD" points="-105.257,2.393 -105.251,2.398 -105.247,2.401 	"/>
	<path fill="#2D74AD" d="M-81.313,31.48l-0.069-0.107l-0.404-0.488l0.006,0.012l-23.47-28.5C-106.452,0.922-108.297,0-110.323,0
		c-2.027,0-3.864,0.928-5.073,2.384l-0.003,0.004l-23.442,28.479v-0.002l-0.391,0.473l-0.087,0.107l-0.075,0.117
		c-0.513,0.799-0.823,1.773-0.822,2.803c0.013,2.843,2.292,5.131,5.137,5.146h8.733h0.381c1.037,0.074,1.878,0.942,1.896,1.991
		v0.047v0.066v21.304v0.975v0.126l0.012,0.126c0.368,3.292,3.146,5.853,6.53,5.854h14.422c1.666,0.002,3.204-0.626,4.354-1.652
		c1.152-1.024,1.944-2.451,2.159-4.059l0.018-0.15v-1.31v-9.824h-4.539v9.824v0.917c-0.079,0.476-0.31,0.897-0.655,1.202
		c-0.361,0.319-0.813,0.507-1.336,0.509h-14.421c-1.016,0.003-1.86-0.765-2-1.77v-0.769V41.615v-0.067v-0.082v-0.023l-0.001-0.019
		c-0.068-3.451-2.77-6.241-6.186-6.453l-0.068-0.004h-0.565h-8.734c-0.153,0-0.292-0.06-0.414-0.176
		c-0.118-0.121-0.18-0.264-0.18-0.426l0.097-0.314l0.241-0.294l23.439-28.477l-0.008,0.009c0.389-0.461,0.949-0.746,1.581-0.746
		c0.641,0,1.194,0.289,1.555,0.729l0.006,0.008l23.475,28.507l0.208,0.25c0.072,0.123,0.1,0.219,0.103,0.329
		c0,0.329-0.275,0.604-0.6,0.604h-8.751h-0.489h-0.068h-0.014v4.588l0.195-0.047h0.375h8.751c2.854-0.005,5.143-2.314,5.145-5.146
		C-80.432,33.28-80.785,32.273-81.313,31.48z"/>
	<ellipse fill="#2D74AD" cx="-94.899" cy="37.244" rx="2.252" ry="2.277"/>
	<ellipse fill="#2D74AD" cx="-98.843" cy="53.171" rx="2.27" ry="2.277"/>
</g>
</svg>
