<?xml version="1.0" encoding="utf-8"?>
<!-- Generator: Adobe Illustrator 16.0.0, SVG Export Plug-In . SVG Version: 6.00 Build 0)  -->
<!DOCTYPE svg PUBLIC "-//W3C//DTD SVG 1.1//EN" "http://www.w3.org/Graphics/SVG/1.1/DTD/svg11.dtd">
<svg version="1.1" id="图层_1" xmlns="http://www.w3.org/2000/svg" xmlns:xlink="http://www.w3.org/1999/xlink" x="0px" y="0px"
	 width="70px" height="70px" viewBox="0 0 70 70" enable-background="new 0 0 70 70" xml:space="preserve">
<g>
	<path fill="#28998A" d="M133.006,18.394c0-1.944,1.34-3.224,3.154-3.224s3.195,1.28,3.195,3.224c0,1.895-1.381,3.224-3.195,3.224
		S133.006,20.289,133.006,18.394z M133.41,26.737h5.517v26.621h-5.517V26.737z"/>
	<path fill="#28998A" d="M168.287,20.066c-1.052,1.108-2.404,1.925-3.93,2.322c1.747,3.844,2.729,8.107,2.729,12.61
		c-0.002,8.432-3.411,16.043-8.935,21.57c-5.527,5.523-13.142,8.933-21.57,8.936c-8.432-0.003-16.043-3.412-21.569-8.936
		c-5.524-5.527-8.935-13.139-8.935-21.57c0.001-8.43,3.411-16.043,8.935-21.569c5.526-5.525,13.138-8.935,21.569-8.935
		c6.855,0,13.172,2.256,18.263,6.069c0.704-1.379,1.781-2.531,3.101-3.332c-5.91-4.558-13.318-7.274-21.363-7.274
		c-19.354,0-35.041,15.687-35.041,35.042s15.687,35.042,35.041,35.042c19.356,0,35.041-15.687,35.041-35.042
		C171.623,29.657,170.426,24.597,168.287,20.066z"/>
	<circle fill="#28998A" cx="156.293" cy="8.804" r="2.278"/>
	<circle fill="#28998A" cx="166.434" cy="21.441" r="2.277"/>
	<circle fill="#28998A" cx="136.18" cy="26.763" r="2.781"/>
	<circle fill="#28998A" cx="136.18" cy="53.358" r="2.781"/>
</g>
<g>
	<path fill="#28998A" d="M-148.992,91.273c0,6.033,0,12.063,0,18.096c0,0.549,0.637,0.945,1.119,0.641
		c1.857-1.171,3.715-2.346,5.574-3.519c-0.496,0.313-0.799-0.144,0.014,0.431c0.52,0.365,1.037,0.73,1.557,1.098
		c0.939,0.664,1.879,1.328,2.82,1.99c0.475,0.336,1.121-0.113,1.121-0.641c0-6.033,0-12.063,0-18.096c0-0.959-1.49-0.959-1.49,0
		c0,6.033,0,12.063,0,18.096c0.373-0.215,0.748-0.43,1.121-0.643c-1.688-1.19-3.375-2.381-5.063-3.572
		c-0.207-0.146-0.541-0.133-0.75,0c-1.885,1.191-3.77,2.381-5.656,3.572c0.375,0.213,0.746,0.428,1.121,0.643
		c0-6.033,0-12.063,0-18.096C-147.504,90.314-148.992,90.314-148.992,91.273z"/>
	<path fill="#28998A" d="M-148.992,91.273h-0.447c0,6.033,0,12.063,0,18.096c0.014,0.689,0.568,1.186,1.205,1.195
		c0.199,0,0.41-0.058,0.6-0.174c1.857-1.175,3.717-2.349,5.572-3.521l-0.477-0.755l-0.158,0.053h-0.016l-0.074-0.005l-0.113,0.015
		l-0.16,0.078c-0.074,0.048-0.182,0.197-0.174,0.354c0.016,0.238,0.109,0.285,0.135,0.32l0.09,0.069l0.063,0.03
		c0.049,0.027,0.172,0.094,0.406,0.258c0.518,0.365,1.035,0.73,1.553,1.098c0.943,0.663,1.883,1.327,2.822,1.991
		c0.188,0.134,0.408,0.198,0.615,0.198c0.332-0.002,0.625-0.147,0.84-0.356c0.213-0.212,0.367-0.507,0.369-0.849
		c0-6.033,0-12.063,0-18.096c0.004-0.355-0.152-0.682-0.387-0.879c-0.234-0.199-0.523-0.287-0.803-0.287
		c-0.283,0-0.57,0.086-0.805,0.287c-0.234,0.197-0.393,0.522-0.387,0.879c0,6.033,0,12.063,0,18.096v0.77l0.668-0.383
		c0.373-0.214,0.746-0.429,1.121-0.643l0.605-0.348l-0.57-0.404c-1.688-1.19-3.375-2.381-5.061-3.572
		c-0.199-0.139-0.418-0.186-0.623-0.188c-0.217,0.002-0.43,0.053-0.625,0.174c-1.885,1.19-3.77,2.382-5.656,3.572l-0.627,0.396
		l0.645,0.367c0.373,0.214,0.746,0.429,1.117,0.643l0.672,0.382v-0.769c0-6.033,0-12.063,0-18.096
		c0.004-0.355-0.154-0.682-0.389-0.879c-0.236-0.199-0.521-0.287-0.803-0.287c-0.281,0-0.57,0.086-0.805,0.287
		c-0.234,0.197-0.391,0.522-0.387,0.879h0.449h0.447c0.004-0.125,0.031-0.158,0.076-0.201l0.221-0.07l0.219,0.07
		c0.043,0.044,0.074,0.078,0.078,0.203c0,6.031,0,12.063,0,18.095h0.447l0.221-0.388c-0.371-0.215-0.746-0.43-1.119-0.644
		l-0.223,0.39l0.24,0.375c1.885-1.189,3.77-2.381,5.656-3.57l0.146-0.035l0.107,0.021c1.688,1.19,3.373,2.381,5.061,3.571
		l0.258-0.364l-0.221-0.389c-0.377,0.214-0.748,0.43-1.123,0.643l0.223,0.389h0.447c0-6.033,0-12.063,0-18.096
		c0.004-0.125,0.033-0.158,0.076-0.201l0.224-0.07l0.221,0.07c0.043,0.044,0.07,0.078,0.076,0.203c0,6.031,0,12.063,0,18.095
		l-0.102,0.21l-0.215,0.102l-0.1-0.033c-0.941-0.664-1.881-1.328-2.82-1.992c-0.52-0.366-1.037-0.731-1.557-1.098
		c-0.193-0.137-0.332-0.222-0.426-0.274l-0.105-0.058l-0.012-0.006l-0.002-0.001l-0.166,0.318l0.189-0.304l-0.023-0.015
		l-0.166,0.318l0.189-0.304l-0.232,0.369l0.293-0.324l-0.061-0.045l-0.232,0.369l0.293-0.324l-0.299,0.33l0.367-0.25l-0.068-0.08
		l-0.299,0.328l0.367-0.25l-0.367,0.25h0.445c-0.002-0.133-0.051-0.207-0.078-0.25l-0.367,0.25h0.445h-0.445l0.27,0.354
		c0.074-0.047,0.18-0.196,0.176-0.354h-0.445l0.27,0.354l-0.27-0.353l0.068,0.438c0.035-0.01,0.086-0.006,0.201-0.086l-0.27-0.354
		l0.068,0.438l-0.068-0.433v0.438l0.068-0.006l-0.068-0.433v0.438v-0.35l-0.039,0.353l0.039,0.002V106.7l-0.039,0.353l0.129,0.008
		c0.152,0.002,0.391-0.037,0.635-0.192l-0.477-0.755c-1.857,1.173-3.715,2.347-5.57,3.52l-0.125,0.037l-0.215-0.094l-0.096-0.208
		c0-6.033,0-12.063,0-18.095H-148.992L-148.992,91.273z"/>
	<path fill="#28998A" d="M-167.25,121.275c6.336,0,12.668,0,19.002,0c1.92,0,1.92-2.977,0-2.977c-6.334,0-12.666,0-19.002,0
		C-169.169,118.299-169.169,121.275-167.25,121.275z"/>
	<path fill="#28998A" d="M-142.563,121.275c1.893,0,3.783,0,5.676,0c1.918,0,1.918-2.977,0-2.977c-1.893,0-3.783,0-5.676,0
		C-144.484,118.299-144.484,121.275-142.563,121.275z"/>
	<path fill="#28998A" d="M-136.887,136.57c-6.246,0-12.492,0-18.735,0c-1.921,0-1.921,2.976,0,2.976c6.243,0,12.489,0,18.735,0
		C-134.967,139.546-134.967,136.57-136.887,136.57z"/>
	<path fill="#28998A" d="M-161.352,136.57c-1.966,0-3.932,0-5.896,0c-1.921,0-1.921,2.976,0,2.976c1.965,0,3.931,0,5.896,0
		C-159.434,139.546-159.434,136.57-161.352,136.57z"/>
	<path fill="#28998A" d="M-167.25,130.404c10.121,0,20.242,0,30.363,0c1.918,0,1.918-2.979,0-2.979c-10.121,0-20.242,0-30.363,0
		C-169.169,127.427-169.169,130.404-167.25,130.404z"/>
	<path fill="#28998A" d="M-132.572,90.083h-36.051c0.168,0.517,0.277,1.06,0.277,1.634c0,0.256-0.037,0.501-0.072,0.747h35.846
		c0.654,0.001,1.188,0.534,1.189,1.19v54.773c-0.002,0.656-0.535,1.188-1.189,1.189h-38.925c-0.657-0.002-1.19-0.533-1.19-1.189
		V96.84c-0.214,0.029-0.423,0.067-0.645,0.067c-0.613,0-1.194-0.132-1.737-0.343v51.862c0.001,1.972,1.599,3.57,3.572,3.572h38.925
		c1.971-0.002,3.57-1.603,3.572-3.572V93.654C-129.002,91.682-130.602,90.083-132.572,90.083z"/>
	<circle fill="#28998A" cx="-168.369" cy="91.261" r="1.207"/>
	<circle fill="#28998A" cx="-173.866" cy="96.637" r="1.204"/>
</g>
<g>
	<path fill="#28998A" d="M-73.833,109.484c-1.031,0-1.984-0.348-2.8-0.926c0.006,0.32,0.008,0.646,0.008,0.982
		c0.006,5.861-0.811,14.002-3.709,21.359c-1.445,3.682-3.405,7.166-6.01,10.115c-2.447,2.771-5.463,5.071-9.224,6.684
		c-3.761-1.611-6.777-3.911-9.226-6.684c-3.905-4.42-6.359-10.062-7.811-15.736c-1.456-5.666-1.909-11.346-1.907-15.739
		c0-2.382,0.133-4.392,0.3-5.79c0.059-0.491,0.122-0.904,0.181-1.223c10.123-3.418,16.176-6.564,18.464-7.86
		c2.147,1.217,7.596,4.06,16.619,7.229c0.334-1.431,1.097-2.662,2.147-3.469c-5.749-1.982-10.064-3.845-12.985-5.248
		c-1.617-0.775-2.811-1.41-3.594-1.846c-0.39-0.219-0.678-0.386-0.863-0.497l-0.203-0.123l-0.045-0.026l-0.006-0.004L-95.567,90
		l-1.07,0.684l-0.007,0.004c-0.265,0.164-6.574,4.082-19.599,8.39l-0.346,0.114l-0.282,0.229c-0.349,0.295-0.456,0.506-0.557,0.673
		c-0.166,0.312-0.228,0.521-0.301,0.761c-0.116,0.404-0.207,0.857-0.296,1.412c-0.259,1.643-0.465,4.157-0.467,7.274
		c0.004,6.217,0.83,14.769,3.986,22.815c1.581,4.021,3.752,7.918,6.729,11.293c2.973,3.375,6.763,6.215,11.481,8.065l0.729,0.286
		l0.728-0.285c4.721-1.852,8.508-4.691,11.482-8.064c4.464-5.064,7.119-11.291,8.682-17.379c1.562-6.092,2.031-12.064,2.031-16.729
		l-0.002-0.219C-73.029,109.421-73.422,109.484-73.833,109.484z"/>
	<ellipse fill="#28998A" cx="-74.651" cy="109.058" rx="2.007" ry="2.173"/>
	<ellipse fill="#28998A" cx="-77.802" cy="100.202" rx="2.008" ry="2.038"/>
	<path fill="#28998A" d="M-107.828,121.118c0.357-0.065,0.713-0.129,1.069-0.192c2.304-0.419,1.212,0.35,0.119-0.779
		c0.794,0.82,1.589,1.639,2.382,2.459c2.057,2.125,4.114,4.25,6.171,6.373c0.728,0.752,2.093,0.793,2.814,0
		c5.313-5.854,10.627-11.709,15.938-17.566c1.72-1.895-1.087-4.719-2.813-2.813c-5.314,5.855-10.627,11.709-15.939,17.565
		c0.938,0,1.876,0,2.814,0c-2.477-2.558-4.954-5.113-7.43-7.673c-2.089-2.157-3.264-1.74-6.183-1.21
		C-111.408,117.738-110.336,121.572-107.828,121.118z"/>
</g>
<g>
	<path fill="#2D74AD" d="M14.062,19.771c9.069,0,18.135,0,27.203,0c2.749,0,2.749-4.261,0-4.261c-9.068,0-18.134,0-27.203,0
		C11.314,15.51,11.314,19.771,14.062,19.771z"/>
	<path fill="#2D74AD" d="M49.403,19.771c2.711,0,5.418,0,8.126,0c2.749,0,2.749-4.261,0-4.261c-2.708,0-5.415,0-8.126,0
		C46.656,15.51,46.656,19.771,49.403,19.771z"/>
	<path fill="#2D74AD" d="M57.529,37.059c-8.939,0-17.88,0-26.821,0c-2.748,0-2.748,4.264,0,4.264c8.941,0,17.882,0,26.821,0
		C60.28,41.322,60.28,37.059,57.529,37.059z"/>
	<path fill="#2D74AD" d="M22.504,37.059c-2.813,0-5.628,0-8.44,0c-2.749,0-2.749,4.264,0,4.264c2.812,0,5.627,0,8.44,0
		C25.25,41.322,25.25,37.059,22.504,37.059z"/>
	<path fill="#2D74AD" d="M14.062,30.399c14.49,0,28.978,0,43.469,0c2.75,0,2.75-4.262,0-4.262c-14.488,0-28.978,0-43.469,0
		C11.314,26.137,11.314,30.399,14.062,30.399z"/>
	<path fill="#2D74AD" d="M63.069,3.437H6.818C3.051,3.437,0,6.49,0,10.254v36.648c0,3.77,3.051,6.82,6.818,6.822h5.104
		c0.954,0,1.724-0.764,1.724-1.707c0-0.941-0.771-1.705-1.724-1.705H6.818c-1.882-0.002-3.406-1.525-3.408-3.41V10.254
		c0.002-1.881,1.526-3.406,3.408-3.408h56.251c1.883,0.002,3.406,1.527,3.408,3.408v36.648c-0.002,1.885-1.525,3.408-3.408,3.41
		H29.902v0.004c-0.341,0.018-0.689,0.139-1.011,0.393c-5.535,4.35-11.074,8.699-16.611,13.047c-1.729,1.357,0.702,3.754,2.412,2.412
		c5.281-4.148,10.56-8.297,15.843-12.443h32.536c3.768-0.002,6.817-3.053,6.818-6.822V10.254C69.887,6.49,66.838,3.437,63.069,3.437
		z"/>
</g>
<g>
	<polygon fill="#2D74AD" points="-8.764,92.119 -8.759,92.124 -8.755,92.127 	"/>
	<path fill="#2D74AD" d="M12.443,117.883l-0.062-0.095l-0.358-0.433l0.006,0.011L-8.759,92.124C-9.822,90.816-11.456,90-13.251,90
		c-1.796,0-3.423,0.822-4.493,2.111l-0.003,0.004L-38.51,117.34v-0.002l-0.346,0.419l-0.077,0.095L-39,117.955
		c-0.454,0.708-0.729,1.57-0.728,2.482c0.011,2.519,2.03,4.545,4.55,4.558h7.735h0.338c0.918,0.065,1.663,0.835,1.679,1.764v0.042
		v0.059v18.869v0.863v0.111l0.011,0.111c0.326,2.916,2.786,5.184,5.784,5.186h12.773c1.476,0.002,2.838-0.555,3.856-1.464
		c1.021-0.907,1.722-2.171,1.912-3.595l0.016-0.133v-1.16v-8.701h-4.021v8.701v0.813c-0.07,0.421-0.274,0.795-0.58,1.064
		c-0.32,0.283-0.721,0.449-1.184,0.451H-19.63c-0.9,0.002-1.648-0.678-1.771-1.567v-0.681v-18.869v-0.06v-0.073v-0.021l-0.001-0.017
		c-0.06-3.057-2.453-5.527-5.479-5.715l-0.06-0.004h-0.501h-7.736c-0.136,0-0.259-0.053-0.367-0.156
		c-0.104-0.107-0.159-0.233-0.159-0.377l0.086-0.278l0.213-0.261l20.761-25.223l-0.007,0.008c0.345-0.408,0.841-0.66,1.4-0.66
		c0.567,0,1.058,0.256,1.377,0.646l0.005,0.007l20.792,25.249l0.185,0.222c0.063,0.108,0.088,0.193,0.091,0.291
		c0,0.291-0.244,0.535-0.531,0.535H0.916H0.482H0.422H0.41v4.064l0.173-0.042h0.332h7.751c2.527-0.004,4.555-2.05,4.557-4.558
		C13.225,119.477,12.911,118.585,12.443,117.883z"/>
	<ellipse fill="#2D74AD" cx="0.41" cy="122.988" rx="1.994" ry="2.017"/>
	<ellipse fill="#2D74AD" cx="-3.083" cy="137.094" rx="2.011" ry="2.017"/>
</g>
</svg>
