<?xml version="1.0" encoding="utf-8"?>
<!-- Generator: Adobe Illustrator 16.0.0, SVG Export Plug-In . SVG Version: 6.00 Build 0)  -->
<!DOCTYPE svg PUBLIC "-//W3C//DTD SVG 1.1//EN" "http://www.w3.org/Graphics/SVG/1.1/DTD/svg11.dtd">
<svg version="1.1" id="图层_1" xmlns="http://www.w3.org/2000/svg" xmlns:xlink="http://www.w3.org/1999/xlink" x="0px" y="0px"
	 width="48px" height="48px" viewBox="0 0 48 48" enable-background="new 0 0 48 48" xml:space="preserve">
<g>
	<path fill="#524C61" d="M2.37,9.518c3.666,0,7.33,0,10.996,0c2.887,0,4.139-3.002,6.78-4.599c3.792-2.292,7.297-0.329,10.019,2.589
		c1.583,1.697,1.667,2.01,3.812,2.01c3.885,0,7.769,0,11.652,0c2.419,0,2.419-3.75,0-3.75c-3.885,0-7.77,0-11.652,0
		c-1.754,0-2.957-2.823-4.91-4.162c-2.267-1.554-5.107-1.663-7.702-1.183c-2.128,0.394-4.028,1.769-5.689,3.067
		c-0.736,0.575-1.39,1.259-2.021,1.944c-1.428,1.547-0.834,0.334,0.486,0.334c-3.923,0-7.846,0-11.77,0
		C-0.048,5.768-0.048,9.518,2.37,9.518z"/>
	<path fill="#524C61" d="M5.019,14.429c0,10.509,0,21.018,0,31.524c0,1.023,0.854,1.875,1.875,1.875c11.404,0,22.809,0,34.211,0
		c1.022,0,1.875-0.852,1.875-1.875c0-10.508,0-21.016,0-31.524c0-2.418-3.75-2.418-3.75,0c0,10.509,0,21.018,0,31.524
		c0.625-0.625,1.25-1.25,1.875-1.875c-11.402,0-22.808,0-34.211,0c0.625,0.625,1.25,1.25,1.875,1.875c0-10.508,0-21.016,0-31.524
		C8.769,12.01,5.019,12.01,5.019,14.429z"/>
	<path fill="#524C61" d="M16.683,18.53c0,6.091,0,12.183,0,18.274c0,2.178,3.75,2.178,3.75,0c0-6.092,0-12.184,0-18.274
		C20.433,16.351,16.683,16.351,16.683,18.53z"/>
	<path fill="#524C61" d="M27.921,18.53c0,6.091,0,12.183,0,18.274c0,2.178,3.75,2.178,3.75,0c0-6.092,0-12.184,0-18.274
		C31.671,16.351,27.921,16.351,27.921,18.53z"/>
</g>
</svg>
