<?xml version="1.0" encoding="utf-8"?>
<!-- Generator: Adobe Illustrator 16.0.0, SVG Export Plug-In . SVG Version: 6.00 Build 0)  -->
<!DOCTYPE svg PUBLIC "-//W3C//DTD SVG 1.1//EN" "http://www.w3.org/Graphics/SVG/1.1/DTD/svg11.dtd">
<svg version="1.1" id="图层_1" xmlns="http://www.w3.org/2000/svg" xmlns:xlink="http://www.w3.org/1999/xlink" x="0px" y="0px"
	 width="48px" height="48px" viewBox="0 0 48 48" enable-background="new 0 0 48 48" xml:space="preserve">
<g>
	<line fill="#524C61" x1="23.622" y1="3.097" x2="23.622" y2="44.902"/>
	<path fill="#524C61" d="M21.63,2.718c0,14.26,0,28.521,0,42.781c0,2.628,3.984,2.628,3.984,0c0-14.26,0-28.521,0-42.781
		C25.614,0.089,21.63,0.089,21.63,2.718z"/>
	<line fill="#524C61" x1="2.513" y1="23.269" x2="23.622" y2="23.269"/>
	<path fill="#524C61" d="M2.513,25.262c7.036,0,14.073,0,21.109,0c2.569,0,2.569-3.984,0-3.984c-7.037,0-14.073,0-21.109,0
		C-0.057,21.277-0.057,25.262,2.513,25.262z"/>
	<line fill="#524C61" x1="31.98" y1="23.269" x2="45.486" y2="23.269"/>
	<path fill="#524C61" d="M33.669,25.262c4.011,0,8.021,0,12.029,0c2.288,0,2.288-3.984,0-3.984c-4.009,0-8.021,0-12.029,0
		C31.381,21.277,31.381,25.262,33.669,25.262z"/>
</g>
</svg>
