<?xml version="1.0" encoding="utf-8"?>
<!-- Generator: Adobe Illustrator 16.0.0, SVG Export Plug-In . SVG Version: 6.00 Build 0)  -->
<!DOCTYPE svg PUBLIC "-//W3C//DTD SVG 1.1//EN" "http://www.w3.org/Graphics/SVG/1.1/DTD/svg11.dtd">
<svg version="1.1" id="图层_1" xmlns="http://www.w3.org/2000/svg" xmlns:xlink="http://www.w3.org/1999/xlink" x="0px" y="0px"
	 width="44px" height="44px" viewBox="0 0 44 44" enable-background="new 0 0 44 44" xml:space="preserve">
<g>
	<path fill="#9FA0A0" d="M22.001,38.131c-0.736,0-1.333,0.6-1.333,1.334v3.201c0,0.736,0.597,1.334,1.333,1.334
		c0.735,0,1.332-0.598,1.332-1.334v-3.201C23.333,38.73,22.736,38.131,22.001,38.131L22.001,38.131z M4.534,20.666H1.332
		C0.597,20.666,0,21.262,0,22c0,0.734,0.597,1.332,1.332,1.332h3.202c0.735,0,1.333-0.598,1.333-1.332
		C5.867,21.262,5.27,20.666,4.534,20.666L4.534,20.666z M8.707,10.591c0.261,0.261,0.602,0.39,0.942,0.39
		c0.342,0,0.682-0.129,0.943-0.39c0.52-0.521,0.52-1.365,0-1.885L8.329,6.443c-0.521-0.521-1.365-0.521-1.885,0
		c-0.521,0.52-0.521,1.365,0,1.885L8.707,10.591L8.707,10.591z M22.001,5.866c0.735,0,1.332-0.598,1.332-1.334v-3.2
		C23.333,0.595,22.736,0,22.001,0c-0.736,0-1.333,0.596-1.333,1.332v3.2C20.668,5.268,21.265,5.866,22.001,5.866L22.001,5.866z
		 M8.707,33.406L6.444,35.67c-0.521,0.521-0.521,1.365,0,1.885c0.26,0.26,0.602,0.389,0.942,0.389s0.682-0.129,0.942-0.389
		l2.264-2.264c0.52-0.521,0.52-1.363,0-1.885C10.071,32.885,9.228,32.885,8.707,33.406L8.707,33.406z M22.001,8.892
		c-7.228,0-13.107,5.88-13.107,13.108c0,7.227,5.88,13.104,13.107,13.104c7.227,0,13.105-5.877,13.105-13.104
		C35.106,14.772,29.228,8.892,22.001,8.892L22.001,8.892z M22.001,32.438V11.559c5.756,0,10.439,4.683,10.439,10.441
		C32.44,27.756,27.757,32.438,22.001,32.438L22.001,32.438z M35.671,6.443l-2.262,2.264c-0.521,0.521-0.521,1.364,0,1.885
		c0.26,0.261,0.601,0.39,0.941,0.39s0.683-0.129,0.943-0.39l2.262-2.264c0.521-0.521,0.521-1.365,0-1.885
		C37.036,5.921,36.191,5.921,35.671,6.443L35.671,6.443z M42.668,20.666h-3.201c-0.735,0-1.333,0.596-1.333,1.334
		c0,0.734,0.598,1.332,1.333,1.332h3.201C43.403,23.332,44,22.734,44,22C44,21.262,43.403,20.666,42.668,20.666L42.668,20.666z
		 M35.294,33.406c-0.521-0.521-1.365-0.521-1.885,0c-0.521,0.52-0.521,1.363,0,1.885l2.262,2.264
		c0.261,0.26,0.601,0.391,0.942,0.391c0.341,0,0.683-0.131,0.942-0.391c0.521-0.52,0.521-1.363,0-1.885L35.294,33.406L35.294,33.406
		z M35.294,33.406"/>
</g>
</svg>
