<?xml version="1.0" encoding="utf-8"?>
<!-- Generator: Adobe Illustrator 16.0.0, SVG Export Plug-In . SVG Version: 6.00 Build 0)  -->
<!DOCTYPE svg PUBLIC "-//W3C//DTD SVG 1.1//EN" "http://www.w3.org/Graphics/SVG/1.1/DTD/svg11.dtd">
<svg version="1.1" id="图层_1" xmlns="http://www.w3.org/2000/svg" xmlns:xlink="http://www.w3.org/1999/xlink" x="0px" y="0px"
	 width="44px" height="44px" viewBox="0 0 44 44" enable-background="new 0 0 44 44" xml:space="preserve">
<g>
	<g>
		<path fill="#9FA0A0" d="M22.001,38.131c-0.736,0-1.333,0.6-1.333,1.334v3.201c0,0.736,0.597,1.334,1.333,1.334
			c0.735,0,1.332-0.598,1.332-1.334v-3.201C23.333,38.73,22.736,38.131,22.001,38.131L22.001,38.131z M4.534,20.666H1.332
			C0.597,20.666,0,21.262,0,22c0,0.734,0.597,1.332,1.332,1.332h3.202c0.735,0,1.333-0.598,1.333-1.332
			C5.867,21.262,5.27,20.666,4.534,20.666L4.534,20.666z M8.707,10.591c0.261,0.261,0.602,0.39,0.942,0.39
			c0.342,0,0.682-0.129,0.943-0.39c0.52-0.521,0.52-1.365,0-1.885L8.329,6.443c-0.521-0.521-1.365-0.521-1.885,0
			c-0.521,0.52-0.521,1.365,0,1.885L8.707,10.591L8.707,10.591z M22.001,5.866c0.735,0,1.332-0.598,1.332-1.334v-3.2
			C23.333,0.595,22.736,0,22.001,0c-0.736,0-1.333,0.596-1.333,1.332v3.2C20.668,5.268,21.265,5.866,22.001,5.866L22.001,5.866z
			 M8.707,33.406L6.444,35.67c-0.521,0.521-0.521,1.365,0,1.885c0.26,0.26,0.602,0.389,0.942,0.389s0.682-0.129,0.942-0.389
			l2.264-2.264c0.52-0.521,0.52-1.363,0-1.885C10.071,32.885,9.228,32.885,8.707,33.406L8.707,33.406z M35.671,6.443l-2.262,2.264
			c-0.521,0.521-0.521,1.364,0,1.885c0.26,0.261,0.601,0.39,0.941,0.39s0.683-0.129,0.943-0.39l2.262-2.264
			c0.521-0.521,0.521-1.365,0-1.885C37.036,5.921,36.191,5.921,35.671,6.443L35.671,6.443z M42.668,20.666h-3.201
			c-0.735,0-1.333,0.596-1.333,1.334c0,0.734,0.598,1.332,1.333,1.332h3.201C43.403,23.332,44,22.734,44,22
			C44,21.262,43.403,20.666,42.668,20.666L42.668,20.666z M35.294,33.406c-0.521-0.521-1.365-0.521-1.885,0
			c-0.521,0.52-0.521,1.363,0,1.885l2.262,2.264c0.261,0.26,0.601,0.391,0.942,0.391c0.341,0,0.683-0.131,0.942-0.391
			c0.521-0.52,0.521-1.363,0-1.885L35.294,33.406L35.294,33.406z M35.294,33.406"/>
	</g>
	<g>
		<path fill="#9FA0A0" d="M33.958,22h-1.15c0,2.988-1.208,5.682-3.164,7.643c-1.96,1.955-4.655,3.164-7.644,3.164
			c-2.987,0-5.683-1.209-7.643-3.164c-1.956-1.961-3.164-4.654-3.164-7.643s1.208-5.684,3.164-7.644
			c1.96-1.956,4.655-3.164,7.643-3.164c2.988,0,5.684,1.208,7.644,3.164c1.956,1.96,3.164,4.656,3.164,7.644H33.958h1.148
			C35.105,14.761,29.239,8.894,22,8.893C14.762,8.894,8.896,14.761,8.895,22C8.896,29.238,14.763,35.104,22,35.105
			C29.238,35.104,35.105,29.238,35.106,22H33.958z"/>
	</g>
</g>
</svg>
