<?xml version="1.0" encoding="utf-8"?>
<!-- Generator: Adobe Illustrator 16.0.0, SVG Export Plug-In . SVG Version: 6.00 Build 0)  -->
<!DOCTYPE svg PUBLIC "-//W3C//DTD SVG 1.1//EN" "http://www.w3.org/Graphics/SVG/1.1/DTD/svg11.dtd">
<svg version="1.1" id="图层_1" xmlns="http://www.w3.org/2000/svg" xmlns:xlink="http://www.w3.org/1999/xlink" x="0px" y="0px"
	 width="44px" height="44px" viewBox="0 0 44 44" enable-background="new 0 0 44 44" xml:space="preserve">
<path fill="#9FA0A0" d="M42.307,20.308h-2.439c-0.344-3.686-1.805-7.048-4.037-9.745l1.725-1.727c0.662-0.66,0.662-1.732,0-2.393
	c-0.66-0.661-1.73-0.661-2.393,0L33.438,8.17c-2.699-2.233-6.061-3.693-9.746-4.039V1.691C23.691,0.757,22.934,0,22,0
	s-1.692,0.757-1.692,1.691v2.439c-3.686,0.346-7.047,1.805-9.744,4.039L8.836,6.443c-0.66-0.661-1.732-0.661-2.393,0
	c-0.661,0.66-0.661,1.732,0,2.393l1.726,1.727c-2.233,2.697-3.693,6.06-4.038,9.745H1.692C0.758,20.308,0,21.064,0,22
	c0,0.934,0.759,1.692,1.692,1.692h2.439c0.345,3.686,1.805,7.047,4.038,9.744l-1.726,1.726c-0.661,0.662-0.661,1.733,0,2.394
	c0.66,0.662,1.732,0.661,2.393,0l1.727-1.726c2.697,2.232,6.059,3.694,9.744,4.038v2.439c0,0.934,0.758,1.691,1.692,1.691
	s1.692-0.758,1.692-1.691v-2.439c3.686-0.344,7.047-1.806,9.744-4.038l1.727,1.726c0.662,0.662,1.732,0.662,2.393,0
	c0.662-0.66,0.662-1.731,0-2.394l-1.725-1.726c2.232-2.698,3.693-6.059,4.037-9.744h2.439C43.242,23.692,44,22.934,44,22
	C44,21.064,43.242,20.308,42.307,20.308L42.307,20.308z M22,38.593c-9.164,0-16.594-7.429-16.594-16.593
	c0-9.165,7.43-16.594,16.594-16.594c9.165,0,16.592,7.429,16.592,16.594C38.592,31.164,31.164,38.593,22,38.593L22,38.593z
	 M22.198,7.505c-0.113-0.003-0.225-0.004-0.339-0.004c-8.034,0-14.546,6.513-14.546,14.546s6.512,14.545,14.546,14.545
	c0.114,0,0.226-0.001,0.339-0.004V7.505L22.198,7.505z M22.198,7.505 M7.441,21.702c-0.003,0.112-0.004,0.226-0.004,0.339
	c0,8.034,6.513,14.546,14.546,14.546c8.033,0,14.544-6.512,14.544-14.546c0-0.113-0.002-0.227-0.004-0.339H7.441L7.441,21.702z"/>
</svg>
