<?xml version="1.0" encoding="utf-8"?>
<!-- Generator: Adobe Illustrator 16.0.0, SVG Export Plug-In . SVG Version: 6.00 Build 0)  -->
<!DOCTYPE svg PUBLIC "-//W3C//DTD SVG 1.1//EN" "http://www.w3.org/Graphics/SVG/1.1/DTD/svg11.dtd">
<svg version="1.1" id="图层_1" xmlns="http://www.w3.org/2000/svg" xmlns:xlink="http://www.w3.org/1999/xlink" x="0px" y="0px"
	 width="44px" height="44px" viewBox="0 0 44 44" enable-background="new 0 0 44 44" xml:space="preserve">
<g>
	<path fill="#9FA0A0" d="M42.309,20.308h-2.441c-0.342-3.686-1.803-7.048-4.035-9.745l1.725-1.727c0.662-0.661,0.662-1.732,0-2.394
		c-0.66-0.661-1.732-0.661-2.395,0L33.438,8.17c-2.697-2.233-6.059-3.694-9.744-4.039V1.692C23.693,0.757,22.936,0,22,0
		c-0.934,0-1.691,0.757-1.691,1.692v2.439c-3.687,0.345-7.047,1.805-9.745,4.039L8.837,6.443c-0.66-0.661-1.731-0.661-2.393,0
		c-0.661,0.661-0.661,1.732,0,2.394l1.726,1.727c-2.232,2.697-3.693,6.059-4.038,9.745H1.692C0.759,20.308,0,21.065,0,22
		s0.759,1.692,1.692,1.692h2.439c0.345,3.686,1.806,7.048,4.038,9.745l-1.726,1.725c-0.661,0.662-0.661,1.734,0,2.395
		c0.661,0.662,1.732,0.66,2.394,0l1.726-1.727c2.698,2.232,6.06,3.694,9.745,4.038v2.439C20.309,43.242,21.066,44,22,44
		c0.936,0,1.693-0.758,1.693-1.692v-2.439c3.686-0.344,7.047-1.806,9.744-4.038l1.727,1.727c0.66,0.662,1.732,0.662,2.393,0
		c0.662-0.66,0.662-1.732,0-2.395l-1.725-1.725c2.232-2.699,3.693-6.06,4.035-9.745h2.441C43.242,23.692,44,22.935,44,22
		S43.242,20.308,42.309,20.308L42.309,20.308z M22,38.594c-9.164,0-16.594-7.43-16.594-16.594c0-9.165,7.43-16.594,16.594-16.594
		S38.594,12.835,38.594,22C38.594,31.164,31.164,38.594,22,38.594L22,38.594z M22.199,7.505c-0.113-0.003-0.226-0.004-0.34-0.004
		c-8.033,0-14.545,6.512-14.545,14.546c0,8.033,6.512,14.544,14.545,14.544c0.114,0,0.227,0,0.34-0.004V7.505L22.199,7.505z
		 M22.199,7.505"/>
</g>
</svg>
